<svg width="120" height="19" viewBox="0 0 120 19" fill="none" xmlns="http://www.w3.org/2000/svg">
<path d="M0.792 9.552C0.792 7.888 1.152 6.408 1.872 5.112C2.592 3.8 3.592 2.784 4.872 2.064C6.168 1.328 7.632 0.959999 9.264 0.959999C11.264 0.959999 12.976 1.488 14.4 2.544C15.824 3.6 16.776 5.04 17.256 6.864H12.744C12.408 6.16 11.928 5.624 11.304 5.256C10.696 4.888 10 4.704 9.216 4.704C7.952 4.704 6.928 5.144 6.144 6.024C5.36 6.904 4.968 8.08 4.968 9.552C4.968 11.024 5.36 12.2 6.144 13.08C6.928 13.96 7.952 14.4 9.216 14.4C10 14.4 10.696 14.216 11.304 13.848C11.928 13.48 12.408 12.944 12.744 12.24H17.256C16.776 14.064 15.824 15.504 14.4 16.56C12.976 17.6 11.264 18.12 9.264 18.12C7.632 18.12 6.168 17.76 4.872 17.04C3.592 16.304 2.592 15.288 1.872 13.992C1.152 12.696 0.792 11.216 0.792 9.552ZM28.0013 4.464C29.5373 4.464 30.7693 4.976 31.6973 6C32.6253 7.008 33.0893 8.4 33.0893 10.176V18H29.0093V10.728C29.0093 9.832 28.7773 9.136 28.3133 8.64C27.8493 8.144 27.2253 7.896 26.4413 7.896C25.6573 7.896 25.0333 8.144 24.5693 8.64C24.1053 9.136 23.8733 9.832 23.8733 10.728V18H19.7693V0.24H23.8733V6.408C24.2893 5.816 24.8573 5.344 25.5773 4.992C26.2973 4.64 27.1053 4.464 28.0013 4.464ZM35.1251 11.28C35.1251 9.904 35.3811 8.696 35.8931 7.656C36.4211 6.616 37.1331 5.816 38.0291 5.256C38.9251 4.696 39.9251 4.416 41.0291 4.416C41.9731 4.416 42.7971 4.608 43.5011 4.992C44.2211 5.376 44.7731 5.88 45.1571 6.504V4.608H49.2611V18H45.1571V16.104C44.7571 16.728 44.1971 17.232 43.4771 17.616C42.7731 18 41.9491 18.192 41.0051 18.192C39.9171 18.192 38.9251 17.912 38.0291 17.352C37.1331 16.776 36.4211 15.968 35.8931 14.928C35.3811 13.872 35.1251 12.656 35.1251 11.28ZM45.1571 11.304C45.1571 10.28 44.8691 9.472 44.2931 8.88C43.7331 8.288 43.0451 7.992 42.2291 7.992C41.4131 7.992 40.7171 8.288 40.1411 8.88C39.5811 9.456 39.3011 10.256 39.3011 11.28C39.3011 12.304 39.5811 13.12 40.1411 13.728C40.7171 14.32 41.4131 14.616 42.2291 14.616C43.0451 14.616 43.7331 14.32 44.2931 13.728C44.8691 13.136 45.1571 12.328 45.1571 11.304ZM59.6942 14.52V18H57.6062C56.1182 18 54.9582 17.64 54.1262 16.92C53.2942 16.184 52.8782 14.992 52.8782 13.344V8.016H51.2462V4.608H52.8782V1.344H56.9822V4.608H59.6702V8.016H56.9822V13.392C56.9822 13.792 57.0782 14.08 57.2702 14.256C57.4622 14.432 57.7822 14.52 58.2302 14.52H59.6942ZM79.6202 1.512V18H78.5402V3.768L72.2042 18H71.3402L64.9802 3.768V18H63.9002V1.512H65.0522L71.7722 16.584L78.4922 1.512H79.6202ZM82.9157 11.472C82.9157 10.128 83.1797 8.952 83.7077 7.944C84.2517 6.936 84.9957 6.16 85.9397 5.616C86.8997 5.072 87.9877 4.8 89.2037 4.8C90.5797 4.8 91.7477 5.136 92.7077 5.808C93.6677 6.48 94.3397 7.336 94.7237 8.376V4.968H95.8037V18H94.7237V14.568C94.3397 15.624 93.6597 16.496 92.6837 17.184C91.7237 17.856 90.5637 18.192 89.2037 18.192C87.9877 18.192 86.8997 17.92 85.9397 17.376C84.9957 16.816 84.2517 16.032 83.7077 15.024C83.1797 14 82.9157 12.816 82.9157 11.472ZM94.7237 11.472C94.7237 10.336 94.4837 9.336 94.0037 8.472C93.5397 7.592 92.8997 6.92 92.0837 6.456C91.2677 5.976 90.3557 5.736 89.3477 5.736C88.2917 5.736 87.3637 5.968 86.5637 6.432C85.7637 6.88 85.1397 7.536 84.6917 8.4C84.2437 9.264 84.0197 10.288 84.0197 11.472C84.0197 12.656 84.2437 13.68 84.6917 14.544C85.1397 15.408 85.7637 16.072 86.5637 16.536C87.3797 17 88.3077 17.232 89.3477 17.232C90.3557 17.232 91.2677 17 92.0837 16.536C92.9157 16.056 93.5637 15.384 94.0277 14.52C94.4917 13.64 94.7237 12.624 94.7237 11.472ZM101.344 5.904V14.52C101.344 15.48 101.52 16.144 101.872 16.512C102.224 16.864 102.848 17.04 103.744 17.04H105.208V18H103.576C102.44 18 101.6 17.736 101.056 17.208C100.528 16.664 100.264 15.768 100.264 14.52V5.904H98.2961V4.968H100.264V1.656H101.344V4.968H105.208V5.904H101.344ZM119.792 10.608C119.792 11.184 119.776 11.616 119.744 11.904H108.488C108.52 13.072 108.776 14.056 109.256 14.856C109.736 15.656 110.368 16.256 111.152 16.656C111.936 17.056 112.792 17.256 113.72 17.256C115 17.256 116.072 16.944 116.936 16.32C117.8 15.68 118.344 14.816 118.568 13.728H119.696C119.44 15.056 118.784 16.136 117.728 16.968C116.672 17.784 115.336 18.192 113.72 18.192C112.504 18.192 111.416 17.92 110.456 17.376C109.496 16.832 108.744 16.056 108.2 15.048C107.656 14.024 107.384 12.832 107.384 11.472C107.384 10.112 107.648 8.928 108.176 7.92C108.72 6.912 109.472 6.144 110.432 5.616C111.392 5.072 112.488 4.8 113.72 4.8C114.968 4.8 116.048 5.072 116.96 5.616C117.888 6.144 118.592 6.856 119.072 7.752C119.552 8.632 119.792 9.584 119.792 10.608ZM118.712 11.016C118.76 9.864 118.552 8.888 118.088 8.088C117.64 7.288 117.024 6.696 116.24 6.312C115.456 5.912 114.608 5.712 113.696 5.712C112.784 5.712 111.936 5.912 111.152 6.312C110.384 6.696 109.752 7.288 109.256 8.088C108.776 8.888 108.52 9.864 108.488 11.016H118.712Z" fill="#CE6847"/>
</svg>
