<svg width="158" height="158" viewBox="0 0 158 158" fill="none" xmlns="http://www.w3.org/2000/svg">
<circle cx="2.5" cy="2.5" r="2.5" fill="white"/>
<circle cx="2.5" cy="70.5" r="2.5" fill="white"/>
<circle cx="2.5" cy="36.5" r="2.5" fill="white"/>
<circle cx="2.5" cy="104.5" r="2.5" fill="white"/>
<circle cx="2.5" cy="138.5" r="2.5" fill="white"/>
<circle cx="2.5" cy="19.5" r="2.5" fill="white"/>
<circle cx="2.5" cy="87.5" r="2.5" fill="white"/>
<circle cx="2.5" cy="53.5" r="2.5" fill="white"/>
<circle cx="2.5" cy="121.5" r="2.5" fill="white"/>
<circle cx="2.5" cy="155.5" r="2.5" fill="white"/>
<circle cx="70.5" cy="2.5" r="2.5" fill="white"/>
<circle cx="70.5" cy="70.5" r="2.5" fill="white"/>
<circle cx="70.5" cy="36.5" r="2.5" fill="white"/>
<circle cx="70.5" cy="104.5" r="2.5" fill="white"/>
<circle cx="70.5" cy="138.5" r="2.5" fill="white"/>
<circle cx="70.5" cy="19.5" r="2.5" fill="white"/>
<circle cx="70.5" cy="87.5" r="2.5" fill="white"/>
<circle cx="70.5" cy="53.5" r="2.5" fill="white"/>
<circle cx="70.5" cy="121.5" r="2.5" fill="white"/>
<circle cx="70.5" cy="155.5" r="2.5" fill="white"/>
<circle cx="19.5" cy="2.5" r="2.5" fill="white"/>
<circle cx="19.5" cy="70.5" r="2.5" fill="white"/>
<circle cx="19.5" cy="36.5" r="2.5" fill="white"/>
<circle cx="19.5" cy="104.5" r="2.5" fill="white"/>
<circle cx="19.5" cy="138.5" r="2.5" fill="white"/>
<circle cx="19.5" cy="19.5" r="2.5" fill="white"/>
<circle cx="19.5" cy="87.5" r="2.5" fill="white"/>
<circle cx="19.5" cy="53.5" r="2.5" fill="white"/>
<circle cx="19.5" cy="121.5" r="2.5" fill="white"/>
<circle cx="19.5" cy="155.5" r="2.5" fill="white"/>
<circle cx="87.5" cy="2.5" r="2.5" fill="white"/>
<circle cx="87.5" cy="70.5" r="2.5" fill="white"/>
<circle cx="87.5" cy="36.5" r="2.5" fill="white"/>
<circle cx="87.5" cy="104.5" r="2.5" fill="white"/>
<circle cx="87.5" cy="138.5" r="2.5" fill="white"/>
<circle cx="87.5" cy="19.5" r="2.5" fill="white"/>
<circle cx="87.5" cy="87.5" r="2.5" fill="white"/>
<circle cx="87.5" cy="53.5" r="2.5" fill="white"/>
<circle cx="87.5" cy="121.5" r="2.5" fill="white"/>
<circle cx="87.5" cy="155.5" r="2.5" fill="white"/>
<circle cx="36.5" cy="2.5" r="2.5" fill="white"/>
<circle cx="36.5" cy="70.5" r="2.5" fill="white"/>
<circle cx="36.5" cy="36.5" r="2.5" fill="white"/>
<circle cx="36.5" cy="104.5" r="2.5" fill="white"/>
<circle cx="36.5" cy="138.5" r="2.5" fill="white"/>
<circle cx="36.5" cy="19.5" r="2.5" fill="white"/>
<circle cx="36.5" cy="87.5" r="2.5" fill="white"/>
<circle cx="36.5" cy="53.5" r="2.5" fill="white"/>
<circle cx="36.5" cy="121.5" r="2.5" fill="white"/>
<circle cx="36.5" cy="155.5" r="2.5" fill="white"/>
<circle cx="104.5" cy="2.5" r="2.5" fill="white"/>
<circle cx="104.5" cy="70.5" r="2.5" fill="white"/>
<circle cx="104.5" cy="36.5" r="2.5" fill="white"/>
<circle cx="104.5" cy="104.5" r="2.5" fill="white"/>
<circle cx="104.5" cy="138.5" r="2.5" fill="white"/>
<circle cx="104.5" cy="19.5" r="2.5" fill="white"/>
<circle cx="104.5" cy="87.5" r="2.5" fill="white"/>
<circle cx="104.5" cy="53.5" r="2.5" fill="white"/>
<circle cx="104.5" cy="121.5" r="2.5" fill="white"/>
<circle cx="104.5" cy="155.5" r="2.5" fill="white"/>
<circle cx="138.5" cy="2.5" r="2.5" fill="white"/>
<circle cx="138.5" cy="70.5" r="2.5" fill="white"/>
<circle cx="138.5" cy="36.5" r="2.5" fill="white"/>
<circle cx="138.5" cy="104.5" r="2.5" fill="white"/>
<circle cx="138.5" cy="138.5" r="2.5" fill="white"/>
<circle cx="138.5" cy="19.5" r="2.5" fill="white"/>
<circle cx="138.5" cy="87.5" r="2.5" fill="white"/>
<circle cx="138.5" cy="53.5" r="2.5" fill="white"/>
<circle cx="138.5" cy="121.5" r="2.5" fill="white"/>
<circle cx="138.5" cy="155.5" r="2.5" fill="white"/>
<circle cx="53.5" cy="2.5" r="2.5" fill="white"/>
<circle cx="53.5" cy="70.5" r="2.5" fill="white"/>
<circle cx="53.5" cy="36.5" r="2.5" fill="white"/>
<circle cx="53.5" cy="104.5" r="2.5" fill="white"/>
<circle cx="53.5" cy="138.5" r="2.5" fill="white"/>
<circle cx="53.5" cy="19.5" r="2.5" fill="white"/>
<circle cx="53.5" cy="87.5" r="2.5" fill="white"/>
<circle cx="53.5" cy="53.5" r="2.5" fill="white"/>
<circle cx="53.5" cy="121.5" r="2.5" fill="white"/>
<circle cx="53.5" cy="155.5" r="2.5" fill="white"/>
<circle cx="121.5" cy="2.5" r="2.5" fill="white"/>
<circle cx="121.5" cy="70.5" r="2.5" fill="white"/>
<circle cx="121.5" cy="36.5" r="2.5" fill="white"/>
<circle cx="121.5" cy="104.5" r="2.5" fill="white"/>
<circle cx="121.5" cy="138.5" r="2.5" fill="white"/>
<circle cx="121.5" cy="19.5" r="2.5" fill="white"/>
<circle cx="121.5" cy="87.5" r="2.5" fill="white"/>
<circle cx="121.5" cy="53.5" r="2.5" fill="white"/>
<circle cx="121.5" cy="121.5" r="2.5" fill="white"/>
<circle cx="121.5" cy="155.5" r="2.5" fill="white"/>
<circle cx="155.5" cy="2.5" r="2.5" fill="white"/>
<circle cx="155.5" cy="70.5" r="2.5" fill="white"/>
<circle cx="155.5" cy="36.5" r="2.5" fill="white"/>
<circle cx="155.5" cy="104.5" r="2.5" fill="white"/>
<circle cx="155.5" cy="138.5" r="2.5" fill="white"/>
<circle cx="155.5" cy="19.5" r="2.5" fill="white"/>
<circle cx="155.5" cy="87.5" r="2.5" fill="white"/>
<circle cx="155.5" cy="53.5" r="2.5" fill="white"/>
<circle cx="155.5" cy="121.5" r="2.5" fill="white"/>
<circle cx="155.5" cy="155.5" r="2.5" fill="white"/>
</svg>
